<svg xmlns="http://www.w3.org/2000/svg" xmlns:xlink="http://www.w3.org/1999/xlink" width="400" zoomAndPan="magnify" viewBox="0 0 300 112.499997" height="150" preserveAspectRatio="xMidYMid meet" version="1.0"><defs><g/><clipPath id="8b81151447"><path d="M 0.664062 0 L 299.335938 0 L 299.335938 112.003906 L 0.664062 112.003906 Z M 0.664062 0 " clip-rule="nonzero"/></clipPath></defs><g clip-path="url(#8b81151447)"><path fill="#ffffff" d="M 0.664062 0 L 299.335938 0 L 299.335938 112.003906 L 0.664062 112.003906 Z M 0.664062 0 " fill-opacity="1" fill-rule="nonzero"/><path fill="#ffffff" d="M 0.664062 0 L 299.335938 0 L 299.335938 112.003906 L 0.664062 112.003906 Z M 0.664062 0 " fill-opacity="1" fill-rule="nonzero"/></g><g fill="#545454" fill-opacity="1"><g transform="translate(39.930936, 56.768716)"><g><path d="M 2.78125 -38.3125 L 14.671875 -38.3125 C 18.265625 -38.3125 21.128906 -37.546875 23.265625 -36.015625 C 25.398438 -34.484375 26.46875 -32 26.46875 -28.5625 C 26.46875 -24.71875 24.875 -21.976562 21.6875 -20.34375 C 27.132812 -19.382812 29.859375 -16.164062 29.859375 -10.6875 C 29.859375 -7.457031 28.742188 -4.867188 26.515625 -2.921875 C 24.285156 -0.972656 21.222656 0 17.328125 0 L 2.78125 0 Z M 11.515625 -23.3125 L 12.21875 -23.3125 C 14.164062 -23.3125 15.617188 -23.648438 16.578125 -24.328125 C 17.535156 -25.015625 18.015625 -26.128906 18.015625 -27.671875 C 18.015625 -30.273438 16.082031 -31.578125 12.21875 -31.578125 L 11.515625 -31.578125 Z M 11.515625 -6.734375 L 14.25 -6.734375 C 18.53125 -6.734375 20.671875 -8.15625 20.671875 -11 C 20.671875 -12.707031 20.132812 -13.929688 19.0625 -14.671875 C 17.988281 -15.410156 16.382812 -15.78125 14.25 -15.78125 L 11.515625 -15.78125 Z M 11.515625 -6.734375 "/></g></g></g><g fill="#ff9a00" fill-opacity="1"><g transform="translate(66.216453, 56.768716)"><g><path d="M 3.578125 -37.09375 C 4.535156 -38.0625 5.679688 -38.546875 7.015625 -38.546875 C 8.347656 -38.546875 9.492188 -38.0625 10.453125 -37.09375 C 11.410156 -36.132812 11.890625 -34.988281 11.890625 -33.65625 C 11.890625 -32.332031 11.410156 -31.191406 10.453125 -30.234375 C 9.492188 -29.273438 8.347656 -28.796875 7.015625 -28.796875 C 5.679688 -28.796875 4.535156 -29.273438 3.578125 -30.234375 C 2.617188 -31.191406 2.140625 -32.332031 2.140625 -33.65625 C 2.140625 -34.988281 2.617188 -36.132812 3.578125 -37.09375 Z M 2.78125 -23.828125 L 2.78125 0 L 11 0 L 11 -23.828125 Z M 2.78125 -23.828125 "/></g></g></g><g fill="#545454" fill-opacity="1"><g transform="translate(75.596638, 56.768716)"><g><path d="M 5.03125 -2.828125 C 2.382812 -5.179688 1.0625 -8.203125 1.0625 -11.890625 C 1.0625 -15.578125 2.4375 -18.601562 5.1875 -20.96875 C 7.945312 -23.332031 11.359375 -24.515625 15.421875 -24.515625 C 19.410156 -24.515625 22.773438 -23.320312 25.515625 -20.9375 C 28.253906 -18.5625 29.625 -15.546875 29.625 -11.890625 C 29.625 -8.234375 28.285156 -5.21875 25.609375 -2.84375 C 22.929688 -0.476562 19.535156 0.703125 15.421875 0.703125 C 11.148438 0.703125 7.6875 -0.472656 5.03125 -2.828125 Z M 11.390625 -15.921875 C 10.328125 -14.867188 9.796875 -13.519531 9.796875 -11.875 C 9.796875 -10.238281 10.304688 -8.898438 11.328125 -7.859375 C 12.347656 -6.828125 13.695312 -6.3125 15.375 -6.3125 C 16.976562 -6.3125 18.296875 -6.835938 19.328125 -7.890625 C 20.367188 -8.941406 20.890625 -10.273438 20.890625 -11.890625 C 20.890625 -13.523438 20.351562 -14.867188 19.28125 -15.921875 C 18.21875 -16.972656 16.914062 -17.5 15.375 -17.5 C 13.789062 -17.5 12.460938 -16.972656 11.390625 -15.921875 Z M 11.390625 -15.921875 "/></g></g></g><g fill="#545454" fill-opacity="1"><g transform="translate(101.64557, 56.768716)"><g><path d="M 27.3125 -20.875 C 29.539062 -18.445312 30.65625 -15.46875 30.65625 -11.9375 C 30.65625 -8.40625 29.539062 -5.414062 27.3125 -2.96875 C 25.082031 -0.519531 22.25 0.703125 18.8125 0.703125 C 15.65625 0.703125 13.050781 -0.289062 11 -2.28125 L 11 12.078125 L 2.78125 12.078125 L 2.78125 -23.828125 L 10.90625 -23.828125 L 10.90625 -21.125 L 11 -21.125 C 13.050781 -23.382812 15.65625 -24.515625 18.8125 -24.515625 C 22.25 -24.515625 25.082031 -23.300781 27.3125 -20.875 Z M 20.3125 -7.890625 C 21.382812 -8.941406 21.921875 -10.285156 21.921875 -11.921875 C 21.921875 -13.566406 21.410156 -14.90625 20.390625 -15.9375 C 19.367188 -16.976562 18.019531 -17.5 16.34375 -17.5 C 14.738281 -17.5 13.414062 -16.972656 12.375 -15.921875 C 11.332031 -14.867188 10.8125 -13.539062 10.8125 -11.9375 C 10.8125 -10.289062 11.347656 -8.941406 12.421875 -7.890625 C 13.492188 -6.835938 14.800781 -6.3125 16.34375 -6.3125 C 17.925781 -6.3125 19.25 -6.835938 20.3125 -7.890625 Z M 20.3125 -7.890625 "/></g></g></g><g fill="#ff9a00" fill-opacity="1"><g transform="translate(128.727683, 56.768716)"><g><path d="M 3.578125 -37.09375 C 4.535156 -38.0625 5.679688 -38.546875 7.015625 -38.546875 C 8.347656 -38.546875 9.492188 -38.0625 10.453125 -37.09375 C 11.410156 -36.132812 11.890625 -34.988281 11.890625 -33.65625 C 11.890625 -32.332031 11.410156 -31.191406 10.453125 -30.234375 C 9.492188 -29.273438 8.347656 -28.796875 7.015625 -28.796875 C 5.679688 -28.796875 4.535156 -29.273438 3.578125 -30.234375 C 2.617188 -31.191406 2.140625 -32.332031 2.140625 -33.65625 C 2.140625 -34.988281 2.617188 -36.132812 3.578125 -37.09375 Z M 2.78125 -23.828125 L 2.78125 0 L 11 0 L 11 -23.828125 Z M 2.78125 -23.828125 "/></g></g></g><g fill="#545454" fill-opacity="1"><g transform="translate(138.107868, 56.768716)"><g><path d="M 5.03125 -2.828125 C 2.382812 -5.179688 1.0625 -8.203125 1.0625 -11.890625 C 1.0625 -15.578125 2.4375 -18.601562 5.1875 -20.96875 C 7.945312 -23.332031 11.359375 -24.515625 15.421875 -24.515625 C 19.410156 -24.515625 22.773438 -23.320312 25.515625 -20.9375 C 28.253906 -18.5625 29.625 -15.546875 29.625 -11.890625 C 29.625 -8.234375 28.285156 -5.21875 25.609375 -2.84375 C 22.929688 -0.476562 19.535156 0.703125 15.421875 0.703125 C 11.148438 0.703125 7.6875 -0.472656 5.03125 -2.828125 Z M 11.390625 -15.921875 C 10.328125 -14.867188 9.796875 -13.519531 9.796875 -11.875 C 9.796875 -10.238281 10.304688 -8.898438 11.328125 -7.859375 C 12.347656 -6.828125 13.695312 -6.3125 15.375 -6.3125 C 16.976562 -6.3125 18.296875 -6.835938 19.328125 -7.890625 C 20.367188 -8.941406 20.890625 -10.273438 20.890625 -11.890625 C 20.890625 -13.523438 20.351562 -14.867188 19.28125 -15.921875 C 18.21875 -16.972656 16.914062 -17.5 15.375 -17.5 C 13.789062 -17.5 12.460938 -16.972656 11.390625 -15.921875 Z M 11.390625 -15.921875 "/></g></g></g><g fill="#545454" fill-opacity="1"><g transform="translate(164.1568, 56.768716)"><g><path d="M 2.78125 0 L 2.78125 -23.828125 L 11 -23.828125 L 11 -21.3125 L 11.09375 -21.3125 C 13.226562 -23.445312 15.503906 -24.515625 17.921875 -24.515625 C 19.097656 -24.515625 20.265625 -24.359375 21.421875 -24.046875 C 22.585938 -23.742188 23.703125 -23.265625 24.765625 -22.609375 C 25.835938 -21.960938 26.707031 -21.039062 27.375 -19.84375 C 28.039062 -18.65625 28.375 -17.273438 28.375 -15.703125 L 28.375 0 L 20.15625 0 L 20.15625 -13.46875 C 20.15625 -14.707031 19.757812 -15.789062 18.96875 -16.71875 C 18.175781 -17.644531 17.144531 -18.109375 15.875 -18.109375 C 14.644531 -18.109375 13.523438 -17.628906 12.515625 -16.671875 C 11.503906 -15.710938 11 -14.644531 11 -13.46875 L 11 0 Z M 2.78125 0 "/></g></g></g><g fill="#545454" fill-opacity="1"><g transform="translate(190.205732, 56.768716)"><g><path d="M 26.890625 -10.78125 L 9.609375 -10.78125 C 9.609375 -9.101562 10.148438 -7.859375 11.234375 -7.046875 C 12.316406 -6.242188 13.492188 -5.84375 14.765625 -5.84375 C 16.097656 -5.84375 17.148438 -6.019531 17.921875 -6.375 C 18.691406 -6.738281 19.578125 -7.445312 20.578125 -8.5 L 26.515625 -5.53125 C 24.035156 -1.375 19.914062 0.703125 14.15625 0.703125 C 10.570312 0.703125 7.492188 -0.523438 4.921875 -2.984375 C 2.347656 -5.453125 1.0625 -8.421875 1.0625 -11.890625 C 1.0625 -15.359375 2.347656 -18.328125 4.921875 -20.796875 C 7.492188 -23.273438 10.570312 -24.515625 14.15625 -24.515625 C 17.9375 -24.515625 21.007812 -23.421875 23.375 -21.234375 C 25.75 -19.054688 26.9375 -15.941406 26.9375 -11.890625 C 26.9375 -11.328125 26.921875 -10.957031 26.890625 -10.78125 Z M 9.84375 -15.328125 L 18.90625 -15.328125 C 18.71875 -16.566406 18.226562 -17.515625 17.4375 -18.171875 C 16.644531 -18.835938 15.628906 -19.171875 14.390625 -19.171875 C 13.035156 -19.171875 11.953125 -18.816406 11.140625 -18.109375 C 10.335938 -17.398438 9.90625 -16.472656 9.84375 -15.328125 Z M 9.84375 -15.328125 "/></g></g></g><g fill="#545454" fill-opacity="1"><g transform="translate(213.56148, 56.768716)"><g><path d="M 26.890625 -10.78125 L 9.609375 -10.78125 C 9.609375 -9.101562 10.148438 -7.859375 11.234375 -7.046875 C 12.316406 -6.242188 13.492188 -5.84375 14.765625 -5.84375 C 16.097656 -5.84375 17.148438 -6.019531 17.921875 -6.375 C 18.691406 -6.738281 19.578125 -7.445312 20.578125 -8.5 L 26.515625 -5.53125 C 24.035156 -1.375 19.914062 0.703125 14.15625 0.703125 C 10.570312 0.703125 7.492188 -0.523438 4.921875 -2.984375 C 2.347656 -5.453125 1.0625 -8.421875 1.0625 -11.890625 C 1.0625 -15.359375 2.347656 -18.328125 4.921875 -20.796875 C 7.492188 -23.273438 10.570312 -24.515625 14.15625 -24.515625 C 17.9375 -24.515625 21.007812 -23.421875 23.375 -21.234375 C 25.75 -19.054688 26.9375 -15.941406 26.9375 -11.890625 C 26.9375 -11.328125 26.921875 -10.957031 26.890625 -10.78125 Z M 9.84375 -15.328125 L 18.90625 -15.328125 C 18.71875 -16.566406 18.226562 -17.515625 17.4375 -18.171875 C 16.644531 -18.835938 15.628906 -19.171875 14.390625 -19.171875 C 13.035156 -19.171875 11.953125 -18.816406 11.140625 -18.109375 C 10.335938 -17.398438 9.90625 -16.472656 9.84375 -15.328125 Z M 9.84375 -15.328125 "/></g></g></g><g fill="#545454" fill-opacity="1"><g transform="translate(236.917228, 56.768716)"><g><path d="M 2.78125 0 L 2.78125 -23.828125 L 11 -23.828125 L 11 -20.390625 L 11.09375 -20.390625 C 11.15625 -20.515625 11.253906 -20.664062 11.390625 -20.84375 C 11.535156 -21.03125 11.835938 -21.351562 12.296875 -21.8125 C 12.765625 -22.28125 13.257812 -22.703125 13.78125 -23.078125 C 14.3125 -23.453125 14.992188 -23.785156 15.828125 -24.078125 C 16.671875 -24.367188 17.523438 -24.515625 18.390625 -24.515625 C 19.285156 -24.515625 20.164062 -24.390625 21.03125 -24.140625 C 21.90625 -23.898438 22.539062 -23.65625 22.9375 -23.40625 L 23.59375 -23.03125 L 20.15625 -16.0625 C 19.132812 -16.9375 17.707031 -17.375 15.875 -17.375 C 14.882812 -17.375 14.035156 -17.15625 13.328125 -16.71875 C 12.617188 -16.28125 12.113281 -15.75 11.8125 -15.125 C 11.519531 -14.507812 11.3125 -13.984375 11.1875 -13.546875 C 11.0625 -13.117188 11 -12.78125 11 -12.53125 L 11 0 Z M 2.78125 0 "/></g></g></g><g fill="#db7c41" fill-opacity="1"><g transform="translate(45.889308, 91.512998)"><g><path d="M 3.09375 0 L 1.25 0 L 1.25 -9.640625 L 3.4375 -9.640625 L 7.296875 -3.421875 L 7.46875 -3.453125 L 7.46875 -9.640625 L 9.3125 -9.640625 L 9.3125 0 L 7.359375 0 L 3.265625 -6.625 L 3.09375 -6.609375 Z M 3.09375 0 "/></g></g></g><g fill="#db7c41" fill-opacity="1"><g transform="translate(59.185153, 91.512998)"><g><path d="M 3.15625 -4.234375 L 3.15625 -1.59375 L 7.765625 -1.59375 L 7.765625 0 L 1.25 0 L 1.25 -9.640625 L 7.65625 -9.640625 L 7.65625 -8.046875 L 3.15625 -8.046875 L 3.15625 -5.78125 L 7.09375 -5.78125 L 7.09375 -4.234375 Z M 3.15625 -4.234375 "/></g></g></g><g fill="#db7c41" fill-opacity="1"><g transform="translate(70.202445, 91.512998)"><g><path d="M 2.109375 0 L 0.171875 0 L 3.015625 -4.953125 L 0.296875 -9.640625 L 2.328125 -9.640625 L 4.328125 -6.1875 L 4.484375 -6.1875 L 6.515625 -9.640625 L 8.4375 -9.640625 L 5.734375 -4.953125 L 8.578125 0 L 6.5625 0 L 4.421875 -3.71875 L 4.265625 -3.71875 Z M 2.109375 0 "/></g></g></g><g fill="#db7c41" fill-opacity="1"><g transform="translate(81.680714, 91.512998)"><g><path d="M 7.71875 -9.640625 L 7.71875 -8.03125 L 4.9375 -8.03125 L 4.9375 0 L 3.046875 0 L 3.046875 -8.03125 L 0.265625 -8.03125 L 0.265625 -9.640625 Z M 7.71875 -9.640625 "/></g></g></g><g fill="#db7c41" fill-opacity="1"><g transform="translate(92.401663, 91.512998)"><g/></g></g><g fill="#db7c41" fill-opacity="1"><g transform="translate(98.321844, 91.512998)"><g><path d="M 4.6875 0.140625 C 3.875 0.140625 3.175781 -0.0390625 2.59375 -0.40625 C 2.007812 -0.78125 1.554688 -1.335938 1.234375 -2.078125 C 0.921875 -2.816406 0.765625 -3.726562 0.765625 -4.8125 C 0.765625 -5.914062 0.953125 -6.835938 1.328125 -7.578125 C 1.710938 -8.316406 2.242188 -8.867188 2.921875 -9.234375 C 3.597656 -9.597656 4.382812 -9.78125 5.28125 -9.78125 C 6.207031 -9.78125 6.992188 -9.609375 7.640625 -9.265625 C 8.296875 -8.921875 8.753906 -8.410156 9.015625 -7.734375 L 7.625 -6.890625 L 7.46875 -6.890625 C 7.269531 -7.328125 6.988281 -7.644531 6.625 -7.84375 C 6.269531 -8.039062 5.820312 -8.140625 5.28125 -8.140625 C 4.457031 -8.140625 3.820312 -7.875 3.375 -7.34375 C 2.9375 -6.820312 2.71875 -5.976562 2.71875 -4.8125 C 2.71875 -3.65625 2.921875 -2.8125 3.328125 -2.28125 C 3.742188 -1.75 4.351562 -1.484375 5.15625 -1.484375 C 5.851562 -1.484375 6.363281 -1.640625 6.6875 -1.953125 C 7.019531 -2.265625 7.1875 -2.734375 7.1875 -3.359375 L 7.1875 -3.765625 L 4.90625 -3.765625 L 4.90625 -5.3125 L 9.078125 -5.3125 L 9.078125 0 L 7.265625 0 L 7.265625 -1.296875 L 7.125 -1.3125 C 6.925781 -0.851562 6.625 -0.492188 6.21875 -0.234375 C 5.820312 0.015625 5.3125 0.140625 4.6875 0.140625 Z M 4.6875 0.140625 "/></g></g></g><g fill="#db7c41" fill-opacity="1"><g transform="translate(111.104028, 91.512998)"><g><path d="M 3.15625 -4.234375 L 3.15625 -1.59375 L 7.765625 -1.59375 L 7.765625 0 L 1.25 0 L 1.25 -9.640625 L 7.65625 -9.640625 L 7.65625 -8.046875 L 3.15625 -8.046875 L 3.15625 -5.78125 L 7.09375 -5.78125 L 7.09375 -4.234375 Z M 3.15625 -4.234375 "/></g></g></g><g fill="#db7c41" fill-opacity="1"><g transform="translate(122.121321, 91.512998)"><g><path d="M 3.09375 0 L 1.25 0 L 1.25 -9.640625 L 3.4375 -9.640625 L 7.296875 -3.421875 L 7.46875 -3.453125 L 7.46875 -9.640625 L 9.3125 -9.640625 L 9.3125 0 L 7.359375 0 L 3.265625 -6.625 L 3.09375 -6.609375 Z M 3.09375 0 "/></g></g></g><g fill="#db7c41" fill-opacity="1"><g transform="translate(135.417168, 91.512998)"><g/></g></g><g fill="#db7c41" fill-opacity="1"><g transform="translate(141.337348, 91.512998)"><g><path d="M 3.15625 -9.640625 L 3.15625 -1.59375 L 7.484375 -1.59375 L 7.484375 0 L 1.25 0 L 1.25 -9.640625 Z M 3.15625 -9.640625 "/></g></g></g><g fill="#db7c41" fill-opacity="1"><g transform="translate(151.8739, 91.512998)"><g><path d="M 3.15625 -4.234375 L 3.15625 -1.59375 L 7.765625 -1.59375 L 7.765625 0 L 1.25 0 L 1.25 -9.640625 L 7.65625 -9.640625 L 7.65625 -8.046875 L 3.15625 -8.046875 L 3.15625 -5.78125 L 7.09375 -5.78125 L 7.09375 -4.234375 Z M 3.15625 -4.234375 "/></g></g></g><g fill="#db7c41" fill-opacity="1"><g transform="translate(162.891187, 91.512998)"><g><path d="M 9.25 0 L 7.25 0 L 6.515625 -2.21875 L 2.828125 -2.21875 L 2.109375 0 L 0.140625 0 L 3.46875 -9.640625 L 5.921875 -9.640625 Z M 4.578125 -7.625 L 3.34375 -3.828125 L 5.984375 -3.828125 L 4.75 -7.625 Z M 4.578125 -7.625 "/></g></g></g><g fill="#db7c41" fill-opacity="1"><g transform="translate(175.014824, 91.512998)"><g><path d="M 1.25 0 L 1.25 -9.640625 L 5.125 -9.640625 C 6.125 -9.640625 6.875 -9.410156 7.375 -8.953125 C 7.882812 -8.492188 8.140625 -7.859375 8.140625 -7.046875 C 8.140625 -6.460938 7.988281 -5.984375 7.6875 -5.609375 C 7.394531 -5.234375 6.957031 -4.945312 6.375 -4.75 L 6.375 -4.609375 C 6.675781 -4.484375 6.921875 -4.289062 7.109375 -4.03125 C 7.296875 -3.769531 7.472656 -3.382812 7.640625 -2.875 L 8.59375 0 L 6.640625 0 L 5.703125 -2.875 C 5.597656 -3.164062 5.484375 -3.390625 5.359375 -3.546875 C 5.242188 -3.710938 5.09375 -3.832031 4.90625 -3.90625 C 4.71875 -3.976562 4.472656 -4.015625 4.171875 -4.015625 L 3.15625 -4.015625 L 3.15625 0 Z M 4.890625 -5.53125 C 5.816406 -5.53125 6.28125 -5.957031 6.28125 -6.8125 C 6.28125 -7.6875 5.816406 -8.125 4.890625 -8.125 L 3.15625 -8.125 L 3.15625 -5.53125 Z M 4.890625 -5.53125 "/></g></g></g><g fill="#db7c41" fill-opacity="1"><g transform="translate(186.756507, 91.512998)"><g><path d="M 3.09375 0 L 1.25 0 L 1.25 -9.640625 L 3.4375 -9.640625 L 7.296875 -3.421875 L 7.46875 -3.453125 L 7.46875 -9.640625 L 9.3125 -9.640625 L 9.3125 0 L 7.359375 0 L 3.265625 -6.625 L 3.09375 -6.609375 Z M 3.09375 0 "/></g></g></g><g fill="#db7c41" fill-opacity="1"><g transform="translate(200.052349, 91.512998)"><g><path d="M 3.15625 0 L 1.25 0 L 1.25 -9.640625 L 3.15625 -9.640625 Z M 3.15625 0 "/></g></g></g><g fill="#db7c41" fill-opacity="1"><g transform="translate(207.203997, 91.512998)"><g><path d="M 3.09375 0 L 1.25 0 L 1.25 -9.640625 L 3.4375 -9.640625 L 7.296875 -3.421875 L 7.46875 -3.453125 L 7.46875 -9.640625 L 9.3125 -9.640625 L 9.3125 0 L 7.359375 0 L 3.265625 -6.625 L 3.09375 -6.609375 Z M 3.09375 0 "/></g></g></g><g fill="#db7c41" fill-opacity="1"><g transform="translate(220.499838, 91.512998)"><g><path d="M 4.6875 0.140625 C 3.875 0.140625 3.175781 -0.0390625 2.59375 -0.40625 C 2.007812 -0.78125 1.554688 -1.335938 1.234375 -2.078125 C 0.921875 -2.816406 0.765625 -3.726562 0.765625 -4.8125 C 0.765625 -5.914062 0.953125 -6.835938 1.328125 -7.578125 C 1.710938 -8.316406 2.242188 -8.867188 2.921875 -9.234375 C 3.597656 -9.597656 4.382812 -9.78125 5.28125 -9.78125 C 6.207031 -9.78125 6.992188 -9.609375 7.640625 -9.265625 C 8.296875 -8.921875 8.753906 -8.410156 9.015625 -7.734375 L 7.625 -6.890625 L 7.46875 -6.890625 C 7.269531 -7.328125 6.988281 -7.644531 6.625 -7.84375 C 6.269531 -8.039062 5.820312 -8.140625 5.28125 -8.140625 C 4.457031 -8.140625 3.820312 -7.875 3.375 -7.34375 C 2.9375 -6.820312 2.71875 -5.976562 2.71875 -4.8125 C 2.71875 -3.65625 2.921875 -2.8125 3.328125 -2.28125 C 3.742188 -1.75 4.351562 -1.484375 5.15625 -1.484375 C 5.851562 -1.484375 6.363281 -1.640625 6.6875 -1.953125 C 7.019531 -2.265625 7.1875 -2.734375 7.1875 -3.359375 L 7.1875 -3.765625 L 4.90625 -3.765625 L 4.90625 -5.3125 L 9.078125 -5.3125 L 9.078125 0 L 7.265625 0 L 7.265625 -1.296875 L 7.125 -1.3125 C 6.925781 -0.851562 6.625 -0.492188 6.21875 -0.234375 C 5.820312 0.015625 5.3125 0.140625 4.6875 0.140625 Z M 4.6875 0.140625 "/></g></g></g></svg>