<svg xmlns="http://www.w3.org/2000/svg" xmlns:xlink="http://www.w3.org/1999/xlink" width="400" zoomAndPan="magnify" viewBox="0 0 300 112.499997" height="150" preserveAspectRatio="xMidYMid meet" version="1.0"><defs><g/></defs><g fill="#0097b2" fill-opacity="1"><g transform="translate(52.231846, 58.160004)"><g><path d="M 2.78125 -38.3125 L 14.671875 -38.3125 C 18.265625 -38.3125 21.128906 -37.546875 23.265625 -36.015625 C 25.398438 -34.484375 26.46875 -32 26.46875 -28.5625 C 26.46875 -24.71875 24.875 -21.976562 21.6875 -20.34375 C 27.132812 -19.382812 29.859375 -16.164062 29.859375 -10.6875 C 29.859375 -7.457031 28.742188 -4.867188 26.515625 -2.921875 C 24.285156 -0.972656 21.222656 0 17.328125 0 L 2.78125 0 Z M 11.515625 -23.3125 L 12.21875 -23.3125 C 14.164062 -23.3125 15.617188 -23.648438 16.578125 -24.328125 C 17.535156 -25.015625 18.015625 -26.128906 18.015625 -27.671875 C 18.015625 -30.273438 16.082031 -31.578125 12.21875 -31.578125 L 11.515625 -31.578125 Z M 11.515625 -6.734375 L 14.25 -6.734375 C 18.53125 -6.734375 20.671875 -8.15625 20.671875 -11 C 20.671875 -12.707031 20.132812 -13.929688 19.0625 -14.671875 C 17.988281 -15.410156 16.382812 -15.78125 14.25 -15.78125 L 11.515625 -15.78125 Z M 11.515625 -6.734375 "/></g></g></g><g fill="#0097b2" fill-opacity="1"><g transform="translate(78.512943, 58.160004)"><g><path d="M 3.578125 -37.09375 C 4.535156 -38.0625 5.679688 -38.546875 7.015625 -38.546875 C 8.347656 -38.546875 9.492188 -38.0625 10.453125 -37.09375 C 11.410156 -36.132812 11.890625 -34.988281 11.890625 -33.65625 C 11.890625 -32.332031 11.410156 -31.191406 10.453125 -30.234375 C 9.492188 -29.273438 8.347656 -28.796875 7.015625 -28.796875 C 5.679688 -28.796875 4.535156 -29.273438 3.578125 -30.234375 C 2.617188 -31.191406 2.140625 -32.332031 2.140625 -33.65625 C 2.140625 -34.988281 2.617188 -36.132812 3.578125 -37.09375 Z M 2.78125 -23.828125 L 2.78125 0 L 11 0 L 11 -23.828125 Z M 2.78125 -23.828125 "/></g></g></g><g fill="#0097b2" fill-opacity="1"><g transform="translate(87.892, 58.160004)"><g><path d="M 5.03125 -2.828125 C 2.382812 -5.179688 1.0625 -8.203125 1.0625 -11.890625 C 1.0625 -15.578125 2.4375 -18.601562 5.1875 -20.96875 C 7.945312 -23.332031 11.359375 -24.515625 15.421875 -24.515625 C 19.410156 -24.515625 22.773438 -23.320312 25.515625 -20.9375 C 28.253906 -18.5625 29.625 -15.546875 29.625 -11.890625 C 29.625 -8.234375 28.285156 -5.21875 25.609375 -2.84375 C 22.929688 -0.476562 19.535156 0.703125 15.421875 0.703125 C 11.148438 0.703125 7.6875 -0.472656 5.03125 -2.828125 Z M 11.390625 -15.921875 C 10.328125 -14.867188 9.796875 -13.519531 9.796875 -11.875 C 9.796875 -10.238281 10.304688 -8.898438 11.328125 -7.859375 C 12.347656 -6.828125 13.695312 -6.3125 15.375 -6.3125 C 16.976562 -6.3125 18.296875 -6.835938 19.328125 -7.890625 C 20.367188 -8.941406 20.890625 -10.273438 20.890625 -11.890625 C 20.890625 -13.523438 20.351562 -14.867188 19.28125 -15.921875 C 18.21875 -16.972656 16.914062 -17.5 15.375 -17.5 C 13.789062 -17.5 12.460938 -16.972656 11.390625 -15.921875 Z M 11.390625 -15.921875 "/></g></g></g><g fill="#545454" fill-opacity="1"><g transform="translate(113.949728, 58.160004)"><g><path d="M 27.3125 -20.875 C 29.539062 -18.445312 30.65625 -15.46875 30.65625 -11.9375 C 30.65625 -8.40625 29.539062 -5.414062 27.3125 -2.96875 C 25.082031 -0.519531 22.25 0.703125 18.8125 0.703125 C 15.65625 0.703125 13.050781 -0.289062 11 -2.28125 L 11 12.078125 L 2.78125 12.078125 L 2.78125 -23.828125 L 10.90625 -23.828125 L 10.90625 -21.125 L 11 -21.125 C 13.050781 -23.382812 15.65625 -24.515625 18.8125 -24.515625 C 22.25 -24.515625 25.082031 -23.300781 27.3125 -20.875 Z M 20.3125 -7.890625 C 21.382812 -8.941406 21.921875 -10.285156 21.921875 -11.921875 C 21.921875 -13.566406 21.410156 -14.90625 20.390625 -15.9375 C 19.367188 -16.976562 18.019531 -17.5 16.34375 -17.5 C 14.738281 -17.5 13.414062 -16.972656 12.375 -15.921875 C 11.332031 -14.867188 10.8125 -13.539062 10.8125 -11.9375 C 10.8125 -10.289062 11.347656 -8.941406 12.421875 -7.890625 C 13.492188 -6.835938 14.800781 -6.3125 16.34375 -6.3125 C 17.925781 -6.3125 19.25 -6.835938 20.3125 -7.890625 Z M 20.3125 -7.890625 "/></g></g></g><g fill="#545454" fill-opacity="1"><g transform="translate(141.020209, 58.160004)"><g><path d="M 3.578125 -37.09375 C 4.535156 -38.0625 5.679688 -38.546875 7.015625 -38.546875 C 8.347656 -38.546875 9.492188 -38.0625 10.453125 -37.09375 C 11.410156 -36.132812 11.890625 -34.988281 11.890625 -33.65625 C 11.890625 -32.332031 11.410156 -31.191406 10.453125 -30.234375 C 9.492188 -29.273438 8.347656 -28.796875 7.015625 -28.796875 C 5.679688 -28.796875 4.535156 -29.273438 3.578125 -30.234375 C 2.617188 -31.191406 2.140625 -32.332031 2.140625 -33.65625 C 2.140625 -34.988281 2.617188 -36.132812 3.578125 -37.09375 Z M 2.78125 -23.828125 L 2.78125 0 L 11 0 L 11 -23.828125 Z M 2.78125 -23.828125 "/></g></g></g><g fill="#545454" fill-opacity="1"><g transform="translate(150.399266, 58.160004)"><g><path d="M 5.03125 -2.828125 C 2.382812 -5.179688 1.0625 -8.203125 1.0625 -11.890625 C 1.0625 -15.578125 2.4375 -18.601562 5.1875 -20.96875 C 7.945312 -23.332031 11.359375 -24.515625 15.421875 -24.515625 C 19.410156 -24.515625 22.773438 -23.320312 25.515625 -20.9375 C 28.253906 -18.5625 29.625 -15.546875 29.625 -11.890625 C 29.625 -8.234375 28.285156 -5.21875 25.609375 -2.84375 C 22.929688 -0.476562 19.535156 0.703125 15.421875 0.703125 C 11.148438 0.703125 7.6875 -0.472656 5.03125 -2.828125 Z M 11.390625 -15.921875 C 10.328125 -14.867188 9.796875 -13.519531 9.796875 -11.875 C 9.796875 -10.238281 10.304688 -8.898438 11.328125 -7.859375 C 12.347656 -6.828125 13.695312 -6.3125 15.375 -6.3125 C 16.976562 -6.3125 18.296875 -6.835938 19.328125 -7.890625 C 20.367188 -8.941406 20.890625 -10.273438 20.890625 -11.890625 C 20.890625 -13.523438 20.351562 -14.867188 19.28125 -15.921875 C 18.21875 -16.972656 16.914062 -17.5 15.375 -17.5 C 13.789062 -17.5 12.460938 -16.972656 11.390625 -15.921875 Z M 11.390625 -15.921875 "/></g></g></g><g fill="#545454" fill-opacity="1"><g transform="translate(176.448198, 58.160004)"><g><path d="M 2.78125 0 L 2.78125 -23.828125 L 11 -23.828125 L 11 -21.3125 L 11.09375 -21.3125 C 13.226562 -23.445312 15.503906 -24.515625 17.921875 -24.515625 C 19.097656 -24.515625 20.265625 -24.359375 21.421875 -24.046875 C 22.585938 -23.742188 23.703125 -23.265625 24.765625 -22.609375 C 25.835938 -21.960938 26.707031 -21.039062 27.375 -19.84375 C 28.039062 -18.65625 28.375 -17.273438 28.375 -15.703125 L 28.375 0 L 20.15625 0 L 20.15625 -13.46875 C 20.15625 -14.707031 19.757812 -15.789062 18.96875 -16.71875 C 18.175781 -17.644531 17.144531 -18.109375 15.875 -18.109375 C 14.644531 -18.109375 13.523438 -17.628906 12.515625 -16.671875 C 11.503906 -15.710938 11 -14.644531 11 -13.46875 L 11 0 Z M 2.78125 0 "/></g></g></g><g fill="#545454" fill-opacity="1"><g transform="translate(202.49713, 58.160004)"><g><path d="M 26.890625 -10.78125 L 9.609375 -10.78125 C 9.609375 -9.101562 10.148438 -7.859375 11.234375 -7.046875 C 12.316406 -6.242188 13.492188 -5.84375 14.765625 -5.84375 C 16.097656 -5.84375 17.148438 -6.019531 17.921875 -6.375 C 18.691406 -6.738281 19.578125 -7.445312 20.578125 -8.5 L 26.515625 -5.53125 C 24.035156 -1.375 19.914062 0.703125 14.15625 0.703125 C 10.570312 0.703125 7.492188 -0.523438 4.921875 -2.984375 C 2.347656 -5.453125 1.0625 -8.421875 1.0625 -11.890625 C 1.0625 -15.359375 2.347656 -18.328125 4.921875 -20.796875 C 7.492188 -23.273438 10.570312 -24.515625 14.15625 -24.515625 C 17.9375 -24.515625 21.007812 -23.421875 23.375 -21.234375 C 25.75 -19.054688 26.9375 -15.941406 26.9375 -11.890625 C 26.9375 -11.328125 26.921875 -10.957031 26.890625 -10.78125 Z M 9.84375 -15.328125 L 18.90625 -15.328125 C 18.71875 -16.566406 18.226562 -17.515625 17.4375 -18.171875 C 16.644531 -18.835938 15.628906 -19.171875 14.390625 -19.171875 C 13.035156 -19.171875 11.953125 -18.816406 11.140625 -18.109375 C 10.335938 -17.398438 9.90625 -16.472656 9.84375 -15.328125 Z M 9.84375 -15.328125 "/></g></g></g><g fill="#545454" fill-opacity="1"><g transform="translate(225.852878, 58.160004)"><g><path d="M 26.890625 -10.78125 L 9.609375 -10.78125 C 9.609375 -9.101562 10.148438 -7.859375 11.234375 -7.046875 C 12.316406 -6.242188 13.492188 -5.84375 14.765625 -5.84375 C 16.097656 -5.84375 17.148438 -6.019531 17.921875 -6.375 C 18.691406 -6.738281 19.578125 -7.445312 20.578125 -8.5 L 26.515625 -5.53125 C 24.035156 -1.375 19.914062 0.703125 14.15625 0.703125 C 10.570312 0.703125 7.492188 -0.523438 4.921875 -2.984375 C 2.347656 -5.453125 1.0625 -8.421875 1.0625 -11.890625 C 1.0625 -15.359375 2.347656 -18.328125 4.921875 -20.796875 C 7.492188 -23.273438 10.570312 -24.515625 14.15625 -24.515625 C 17.9375 -24.515625 21.007812 -23.421875 23.375 -21.234375 C 25.75 -19.054688 26.9375 -15.941406 26.9375 -11.890625 C 26.9375 -11.328125 26.921875 -10.957031 26.890625 -10.78125 Z M 9.84375 -15.328125 L 18.90625 -15.328125 C 18.71875 -16.566406 18.226562 -17.515625 17.4375 -18.171875 C 16.644531 -18.835938 15.628906 -19.171875 14.390625 -19.171875 C 13.035156 -19.171875 11.953125 -18.816406 11.140625 -18.109375 C 10.335938 -17.398438 9.90625 -16.472656 9.84375 -15.328125 Z M 9.84375 -15.328125 "/></g></g></g><g fill="#545454" fill-opacity="1"><g transform="translate(249.208626, 58.160004)"><g><path d="M 2.78125 0 L 2.78125 -23.828125 L 11 -23.828125 L 11 -20.390625 L 11.09375 -20.390625 C 11.15625 -20.515625 11.253906 -20.664062 11.390625 -20.84375 C 11.535156 -21.03125 11.835938 -21.351562 12.296875 -21.8125 C 12.765625 -22.28125 13.257812 -22.703125 13.78125 -23.078125 C 14.3125 -23.453125 14.992188 -23.785156 15.828125 -24.078125 C 16.671875 -24.367188 17.523438 -24.515625 18.390625 -24.515625 C 19.285156 -24.515625 20.164062 -24.390625 21.03125 -24.140625 C 21.90625 -23.898438 22.539062 -23.65625 22.9375 -23.40625 L 23.59375 -23.03125 L 20.15625 -16.0625 C 19.132812 -16.9375 17.707031 -17.375 15.875 -17.375 C 14.882812 -17.375 14.035156 -17.15625 13.328125 -16.71875 C 12.617188 -16.28125 12.113281 -15.75 11.8125 -15.125 C 11.519531 -14.507812 11.3125 -13.984375 11.1875 -13.546875 C 11.0625 -13.117188 11 -12.78125 11 -12.53125 L 11 0 Z M 2.78125 0 "/></g></g></g><g fill="#0097b2" fill-opacity="1"><g transform="translate(134.158766, 70.043316)"><g><path d="M 1.953125 0 L 0.796875 0 L 0.796875 -6.078125 L 2.171875 -6.078125 L 4.609375 -2.15625 L 4.71875 -2.171875 L 4.71875 -6.078125 L 5.875 -6.078125 L 5.875 0 L 4.640625 0 L 2.0625 -4.1875 L 1.953125 -4.171875 Z M 1.953125 0 "/></g></g></g><g fill="#0097b2" fill-opacity="1"><g transform="translate(142.554045, 70.043316)"><g><path d="M 1.984375 -2.671875 L 1.984375 -1 L 4.890625 -1 L 4.890625 0 L 0.796875 0 L 0.796875 -6.078125 L 4.828125 -6.078125 L 4.828125 -5.078125 L 1.984375 -5.078125 L 1.984375 -3.65625 L 4.46875 -3.65625 L 4.46875 -2.671875 Z M 1.984375 -2.671875 "/></g></g></g><g fill="#0097b2" fill-opacity="1"><g transform="translate(149.510427, 70.043316)"><g><path d="M 1.328125 0 L 0.109375 0 L 1.90625 -3.125 L 0.1875 -6.078125 L 1.46875 -6.078125 L 2.734375 -3.90625 L 2.828125 -3.90625 L 4.109375 -6.078125 L 5.328125 -6.078125 L 3.609375 -3.125 L 5.40625 0 L 4.140625 0 L 2.796875 -2.34375 L 2.6875 -2.34375 Z M 1.328125 0 "/></g></g></g><g fill="#0097b2" fill-opacity="1"><g transform="translate(156.757915, 70.043316)"><g><path d="M 4.875 -6.078125 L 4.875 -5.0625 L 3.125 -5.0625 L 3.125 0 L 1.921875 0 L 1.921875 -5.0625 L 0.171875 -5.0625 L 0.171875 -6.078125 Z M 4.875 -6.078125 "/></g></g></g><g fill="#0097b2" fill-opacity="1"><g transform="translate(163.527157, 70.043316)"><g/></g></g><g fill="#0097b2" fill-opacity="1"><g transform="translate(167.264733, 70.043316)"><g><path d="M 2.953125 0.09375 C 2.441406 0.09375 2 -0.0195312 1.625 -0.25 C 1.257812 -0.488281 0.976562 -0.84375 0.78125 -1.3125 C 0.582031 -1.78125 0.484375 -2.359375 0.484375 -3.046875 C 0.484375 -3.734375 0.601562 -4.3125 0.84375 -4.78125 C 1.082031 -5.25 1.414062 -5.597656 1.84375 -5.828125 C 2.269531 -6.054688 2.765625 -6.171875 3.328125 -6.171875 C 3.910156 -6.171875 4.40625 -6.0625 4.8125 -5.84375 C 5.226562 -5.625 5.519531 -5.300781 5.6875 -4.875 L 4.8125 -4.34375 L 4.703125 -4.34375 C 4.578125 -4.613281 4.398438 -4.8125 4.171875 -4.9375 C 3.953125 -5.0625 3.671875 -5.125 3.328125 -5.125 C 2.804688 -5.125 2.40625 -4.957031 2.125 -4.625 C 1.851562 -4.300781 1.71875 -3.773438 1.71875 -3.046875 C 1.71875 -2.304688 1.847656 -1.769531 2.109375 -1.4375 C 2.367188 -1.101562 2.75 -0.9375 3.25 -0.9375 C 3.6875 -0.9375 4.007812 -1.035156 4.21875 -1.234375 C 4.425781 -1.429688 4.53125 -1.722656 4.53125 -2.109375 L 4.53125 -2.375 L 3.09375 -2.375 L 3.09375 -3.359375 L 5.734375 -3.359375 L 5.734375 0 L 4.578125 0 L 4.578125 -0.8125 L 4.5 -0.828125 C 4.375 -0.535156 4.179688 -0.304688 3.921875 -0.140625 C 3.671875 0.015625 3.347656 0.09375 2.953125 0.09375 Z M 2.953125 0.09375 "/></g></g></g><g fill="#0097b2" fill-opacity="1"><g transform="translate(175.335638, 70.043316)"><g><path d="M 1.984375 -2.671875 L 1.984375 -1 L 4.890625 -1 L 4.890625 0 L 0.796875 0 L 0.796875 -6.078125 L 4.828125 -6.078125 L 4.828125 -5.078125 L 1.984375 -5.078125 L 1.984375 -3.65625 L 4.46875 -3.65625 L 4.46875 -2.671875 Z M 1.984375 -2.671875 "/></g></g></g><g fill="#0097b2" fill-opacity="1"><g transform="translate(182.29202, 70.043316)"><g><path d="M 1.953125 0 L 0.796875 0 L 0.796875 -6.078125 L 2.171875 -6.078125 L 4.609375 -2.15625 L 4.71875 -2.171875 L 4.71875 -6.078125 L 5.875 -6.078125 L 5.875 0 L 4.640625 0 L 2.0625 -4.1875 L 1.953125 -4.171875 Z M 1.953125 0 "/></g></g></g><g fill="#0097b2" fill-opacity="1"><g transform="translate(190.687298, 70.043316)"><g/></g></g><g fill="#0097b2" fill-opacity="1"><g transform="translate(194.424871, 70.043316)"><g><path d="M 1.984375 -6.078125 L 1.984375 -1 L 4.71875 -1 L 4.71875 0 L 0.796875 0 L 0.796875 -6.078125 Z M 1.984375 -6.078125 "/></g></g></g><g fill="#0097b2" fill-opacity="1"><g transform="translate(201.077668, 70.043316)"><g><path d="M 1.984375 -2.671875 L 1.984375 -1 L 4.890625 -1 L 4.890625 0 L 0.796875 0 L 0.796875 -6.078125 L 4.828125 -6.078125 L 4.828125 -5.078125 L 1.984375 -5.078125 L 1.984375 -3.65625 L 4.46875 -3.65625 L 4.46875 -2.671875 Z M 1.984375 -2.671875 "/></g></g></g><g fill="#0097b2" fill-opacity="1"><g transform="translate(208.034048, 70.043316)"><g><path d="M 5.828125 0 L 4.5625 0 L 4.109375 -1.40625 L 1.78125 -1.40625 L 1.328125 0 L 0.09375 0 L 2.1875 -6.078125 L 3.734375 -6.078125 Z M 2.890625 -4.8125 L 2.109375 -2.40625 L 3.78125 -2.40625 L 3 -4.8125 Z M 2.890625 -4.8125 "/></g></g></g><g fill="#0097b2" fill-opacity="1"><g transform="translate(215.689083, 70.043316)"><g><path d="M 0.796875 0 L 0.796875 -6.078125 L 3.234375 -6.078125 C 3.859375 -6.078125 4.332031 -5.929688 4.65625 -5.640625 C 4.976562 -5.347656 5.140625 -4.945312 5.140625 -4.4375 C 5.140625 -4.070312 5.046875 -3.769531 4.859375 -3.53125 C 4.671875 -3.300781 4.390625 -3.125 4.015625 -3 L 4.015625 -2.90625 C 4.203125 -2.820312 4.351562 -2.695312 4.46875 -2.53125 C 4.59375 -2.375 4.707031 -2.132812 4.8125 -1.8125 L 5.421875 0 L 4.1875 0 L 3.59375 -1.8125 C 3.53125 -2 3.457031 -2.140625 3.375 -2.234375 C 3.300781 -2.335938 3.207031 -2.410156 3.09375 -2.453125 C 2.976562 -2.503906 2.828125 -2.53125 2.640625 -2.53125 L 1.984375 -2.53125 L 1.984375 0 Z M 3.078125 -3.484375 C 3.660156 -3.484375 3.953125 -3.753906 3.953125 -4.296875 C 3.953125 -4.847656 3.660156 -5.125 3.078125 -5.125 L 1.984375 -5.125 L 1.984375 -3.484375 Z M 3.078125 -3.484375 "/></g></g></g><g fill="#0097b2" fill-opacity="1"><g transform="translate(223.102916, 70.043316)"><g><path d="M 1.953125 0 L 0.796875 0 L 0.796875 -6.078125 L 2.171875 -6.078125 L 4.609375 -2.15625 L 4.71875 -2.171875 L 4.71875 -6.078125 L 5.875 -6.078125 L 5.875 0 L 4.640625 0 L 2.0625 -4.1875 L 1.953125 -4.171875 Z M 1.953125 0 "/></g></g></g><g fill="#0097b2" fill-opacity="1"><g transform="translate(231.498199, 70.043316)"><g><path d="M 1.984375 0 L 0.796875 0 L 0.796875 -6.078125 L 1.984375 -6.078125 Z M 1.984375 0 "/></g></g></g><g fill="#0097b2" fill-opacity="1"><g transform="translate(236.013448, 70.043316)"><g><path d="M 1.953125 0 L 0.796875 0 L 0.796875 -6.078125 L 2.171875 -6.078125 L 4.609375 -2.15625 L 4.71875 -2.171875 L 4.71875 -6.078125 L 5.875 -6.078125 L 5.875 0 L 4.640625 0 L 2.0625 -4.1875 L 1.953125 -4.171875 Z M 1.953125 0 "/></g></g></g><g fill="#0097b2" fill-opacity="1"><g transform="translate(244.408731, 70.043316)"><g><path d="M 2.953125 0.09375 C 2.441406 0.09375 2 -0.0195312 1.625 -0.25 C 1.257812 -0.488281 0.976562 -0.84375 0.78125 -1.3125 C 0.582031 -1.78125 0.484375 -2.359375 0.484375 -3.046875 C 0.484375 -3.734375 0.601562 -4.3125 0.84375 -4.78125 C 1.082031 -5.25 1.414062 -5.597656 1.84375 -5.828125 C 2.269531 -6.054688 2.765625 -6.171875 3.328125 -6.171875 C 3.910156 -6.171875 4.40625 -6.0625 4.8125 -5.84375 C 5.226562 -5.625 5.519531 -5.300781 5.6875 -4.875 L 4.8125 -4.34375 L 4.703125 -4.34375 C 4.578125 -4.613281 4.398438 -4.8125 4.171875 -4.9375 C 3.953125 -5.0625 3.671875 -5.125 3.328125 -5.125 C 2.804688 -5.125 2.40625 -4.957031 2.125 -4.625 C 1.851562 -4.300781 1.71875 -3.773438 1.71875 -3.046875 C 1.71875 -2.304688 1.847656 -1.769531 2.109375 -1.4375 C 2.367188 -1.101562 2.75 -0.9375 3.25 -0.9375 C 3.6875 -0.9375 4.007812 -1.035156 4.21875 -1.234375 C 4.425781 -1.429688 4.53125 -1.722656 4.53125 -2.109375 L 4.53125 -2.375 L 3.09375 -2.375 L 3.09375 -3.359375 L 5.734375 -3.359375 L 5.734375 0 L 4.578125 0 L 4.578125 -0.8125 L 4.5 -0.828125 C 4.375 -0.535156 4.179688 -0.304688 3.921875 -0.140625 C 3.671875 0.015625 3.347656 0.09375 2.953125 0.09375 Z M 2.953125 0.09375 "/></g></g></g><path stroke-linecap="round" transform="matrix(-0.746681, 0, 0, -0.746681, 49.194536, 58.155162)" fill="none" stroke-linejoin="miter" d="M 5.000256 4.99984 L 36.582712 4.99984 " stroke="#545454" stroke-width="10" stroke-opacity="1" stroke-miterlimit="4"/><path stroke-linecap="round" transform="matrix(-0.746681, 0, 0, -0.746681, 49.197976, 44.234979)" fill="none" stroke-linejoin="miter" d="M 4.999633 5.002105 L 30.670514 5.002105 " stroke="#ff9a00" stroke-width="10" stroke-opacity="1" stroke-miterlimit="4"/><path stroke-linecap="round" transform="matrix(-0.746681, 0, 0, -0.746681, 49.190139, 29.051844)" fill="none" stroke-linejoin="miter" d="M 4.9996 4.997489 L 18.962425 4.997489 " stroke="#7ed957" stroke-width="10" stroke-opacity="1" stroke-miterlimit="4"/></svg>